<?xml version="1.0" encoding="UTF-8" standalone="no"?>
<!-- Created with Inkscape (http://www.inkscape.org/) -->

<svg
   xmlns:dc="http://purl.org/dc/elements/1.1/"
   xmlns:cc="http://creativecommons.org/ns#"
   xmlns:rdf="http://www.w3.org/1999/02/22-rdf-syntax-ns#"
   xmlns:svg="http://www.w3.org/2000/svg"
   xmlns="http://www.w3.org/2000/svg"
   version="1.0"
   width="64"
   height="64"
   viewBox="5.5 -3.5 64 64"
   id="Layer_1"
   xml:space="preserve"><metadata
   id="metadata13"><rdf:RDF><cc:Work
       rdf:about=""><dc:format>image/svg+xml</dc:format><dc:type
         rdf:resource="http://purl.org/dc/dcmitype/StillImage" /><dc:title></dc:title></cc:Work></rdf:RDF></metadata><defs
   id="defs11" />

<g
   transform="translate(-0.16518661,-0.144)"
   id="g4"><path
     d="M 52.34,13.615 H 43.713 L 45.7,3.399 l 7.61,-3.815 0.736,-2.75 -10.25,5.264 -2.259,11.517 H 22.449 c -1.18,0 -2.136,0.956 -2.136,2.135 l 3.866,42.568 c 0,1.18 0.956,2.136 2.136,2.136 h 22.153 c 1.181,0 2.137,-0.956 2.137,-2.136 L 54.475,15.75 C 54.476,14.57 53.52,13.615 52.34,13.615 z M 48.467,58.318 H 26.315 L 22.447,15.75 H 41.09 L 38.423,28.561 H 25.65 l 2.402,27.623 H 46.734 L 49.136,28.561 H 40.601 L 43.265,15.75 h 9.072 l -3.87,42.568 z m -6.205,-6.734 c -1.298,1.37 -3.133,2.228 -5.168,2.228 -3.935,0 -7.125,-3.19 -7.125,-7.125 0,-2.023 0.847,-3.848 2.202,-5.145 0.804,0.762 8.992,8.859 10.091,10.042 z"
     id="path6" /><path
     d="m 33.107,51.669 c 1.363,1.107 2.812,1.313 3.143,1.352 0.334,0.038 0.484,-0.411 0.484,-0.411 l 0.022,-5.26 -3.666,3.778 c -0.306,0.358 0.017,0.541 0.017,0.541 z"
     id="path8" /><path
     d="m 37.688,53.013 c 1.75,-0.156 2.969,-1.188 3.234,-1.391 0.265,-0.203 0.094,-0.531 0.094,-0.531 l -3.719,-3.719 v 5.266 c 0.031,0.468 0.391,0.375 0.391,0.375 z"
     id="path10" /><path
     d="m 30.756,47.408 c 0.19,1.746 1.246,2.944 1.454,3.206 0.209,0.261 0.534,0.083 0.534,0.083 l 3.642,-3.794 -5.264,0.108 c -0.468,0.04 -0.366,0.397 -0.366,0.397 z"
     id="path12" /><path
     d="m 31.983,42.775 c -1.097,1.372 -1.194,2.966 -1.231,3.298 -0.036,0.333 0.319,0.436 0.319,0.436 l 5.258,-0.116 -3.805,-3.64 c -0.36,-0.302 -0.541,0.022 -0.541,0.022 z"
     id="path14" /></g></svg>