<?xml version="1.0" encoding="utf-8"?>
<!-- Generator: Adobe Illustrator 16.2.1, SVG Export Plug-In . SVG Version: 6.00 Build 0)  -->
<!DOCTYPE svg PUBLIC "-//W3C//DTD SVG 1.1//EN" "http://www.w3.org/Graphics/SVG/1.1/DTD/svg11.dtd">
<svg version="1.1"
	 id="Layer_1" xmlns:dc="http://purl.org/dc/elements/1.1/" xmlns:cc="http://creativecommons.org/ns#" xmlns:rdf="http://www.w3.org/1999/02/22-rdf-syntax-ns#" xmlns:svg="http://www.w3.org/2000/svg"
	 xmlns="http://www.w3.org/2000/svg" xmlns:xlink="http://www.w3.org/1999/xlink" x="0px" y="0px" width="64px" height="64px"
	 viewBox="0 0 64 64" enable-background="new 0 0 64 64" xml:space="preserve">
<g>
	<path id="path3114_3_" d="M36.297,12.147v9.679c0,0.615-0.174,1.174-0.52,1.678c-0.348,0.504-0.801,0.857-1.357,1.058v11.781
		c0,0.525-0.186,0.979-0.559,1.361c-0.371,0.383-0.812,0.574-1.32,0.574h-1.876c-0.51,0-0.949-0.191-1.32-0.574
		c-0.372-0.383-0.559-0.836-0.559-1.361V24.562c-0.557-0.201-1.01-0.554-1.356-1.058s-0.521-1.063-0.521-1.678v-9.679
		c0-0.262,0.093-0.489,0.278-0.681c0.186-0.191,0.405-0.287,0.66-0.287c0.254,0,0.475,0.096,0.66,0.287
		c0.187,0.192,0.278,0.419,0.278,0.681v6.292c0,0.262,0.094,0.489,0.279,0.68c0.186,0.192,0.406,0.288,0.66,0.288
		s0.474-0.096,0.66-0.288c0.186-0.191,0.279-0.418,0.279-0.68v-6.292c0-0.262,0.092-0.489,0.277-0.681
		c0.187-0.191,0.406-0.287,0.661-0.287c0.253,0,0.474,0.096,0.659,0.287c0.187,0.192,0.279,0.419,0.279,0.681v6.292
		c0,0.262,0.094,0.489,0.279,0.68c0.186,0.192,0.406,0.288,0.66,0.288c0.256,0,0.475-0.096,0.66-0.288
		c0.186-0.191,0.279-0.418,0.279-0.68v-6.292c0-0.262,0.092-0.489,0.277-0.681c0.186-0.191,0.406-0.287,0.662-0.287
		c0.252,0,0.473,0.096,0.658,0.287C36.203,11.658,36.297,11.885,36.297,12.147L36.297,12.147z"/>
	<path id="path3128_1_" d="M32,1.966C15.413,1.966,1.966,15.414,1.966,32S15.413,62.034,32,62.034
		c16.587,0,30.033-13.448,30.033-30.034S48.588,1.966,32,1.966z M32,54.525C19.561,54.525,9.475,44.439,9.475,32
		S19.561,9.475,32,9.475c12.439,0,22.525,10.086,22.525,22.525S44.439,54.525,32,54.525z"/>
	<path d="M53.461,32.253c0-2.661-3.301-4.818-7.373-4.818c-0.326,0-3.52,0.163-3.52,0.163c-0.615,0-1.174,0.174-1.678,0.52
		c-0.504,0.349-0.857,0.801-1.059,1.358H28.051c-0.525,0-0.979,0.186-1.361,0.558c-0.383,0.371-0.574,0.812-0.574,1.32v1.877
		c0,0.51,0.191,0.949,0.574,1.32c0.383,0.372,0.836,0.559,1.361,0.559h11.781c0.201,0.557,0.555,1.01,1.059,1.356
		s1.062,0.521,1.678,0.521c0,0,3.32,0.085,3.52,0.085c0.037,0,0.074-0.003,0.113-0.004l0.082,0.002l0.006-0.005
		C50.268,36.994,53.461,34.869,53.461,32.253z"/>
</g>
</svg>
