<?xml version="1.0" encoding="UTF-8" standalone="no"?>
<!-- Created with Inkscape (http://www.inkscape.org/) -->

<svg
   xmlns:dc="http://purl.org/dc/elements/1.1/"
   xmlns:cc="http://creativecommons.org/ns#"
   xmlns:rdf="http://www.w3.org/1999/02/22-rdf-syntax-ns#"
   xmlns:svg="http://www.w3.org/2000/svg"
   xmlns="http://www.w3.org/2000/svg"
   xmlns:sodipodi="http://sodipodi.sourceforge.net/DTD/sodipodi-0.dtd"
   xmlns:inkscape="http://www.inkscape.org/namespaces/inkscape"
   version="1.0"
   width="64"
   height="64"
   viewBox="5.5 -3.5 64 64"
   id="Layer_1"
   xml:space="preserve"
   inkscape:version="0.48.3.1 r9886"
   sodipodi:docname="picture.svg"><sodipodi:namedview
   pagecolor="#ffffff"
   bordercolor="#666666"
   borderopacity="1"
   objecttolerance="10"
   gridtolerance="10"
   guidetolerance="10"
   inkscape:pageopacity="0"
   inkscape:pageshadow="2"
   inkscape:window-width="640"
   inkscape:window-height="480"
   id="namedview7"
   showgrid="false"
   inkscape:zoom="5.2149125"
   inkscape:cx="27.359959"
   inkscape:cy="33.357987"
   inkscape:window-x="65"
   inkscape:window-y="24"
   inkscape:window-maximized="0"
   inkscape:current-layer="Layer_1" /><metadata
   id="metadata13"><rdf:RDF><cc:Work
       rdf:about=""><dc:format>image/svg+xml</dc:format><dc:type
         rdf:resource="http://purl.org/dc/dcmitype/StillImage" /><dc:title /></cc:Work></rdf:RDF></metadata><defs
   id="defs11" />

<g
   id="g2986"
   transform="matrix(0.06053326,0,0,-0.06053326,6.1684743,54.030591)"><path
     id="path2988"
     d="m 851.328,13.216 -83.968,23.04 -0.19202,232.256 80.32,-22.592 115.808,432.288 -586.624,157.184 -38.656,-144.192 h -66.176 l 59.616,222.464 L 1041.632,723.392 z M 737.248,-64 H 0 V 671.264 H 737.248 V -64 z M 673.312,607.328 H 63.936 v -447.52 h 609.376 v 447.52 z M 251.168,288.224 324.224,406.368 397.28,332.736 497.728,484 602.784,223.712 l -465.792,-3e-5 59.36,118.72 z m -43.68,125.024 c -26.496,0 -47.968,21.44 -47.968,47.936 0,26.496 21.472,47.936 47.968,47.936 26.496,0 47.936,-21.44 47.936,-47.936 0,-26.496 -21.44,-47.936 -47.936,-47.936 z"
     inkscape:connector-curvature="0"
     style="fill:currentColor" /></g></svg>