<?xml version="1.0" encoding="UTF-8" standalone="no"?>
<!-- Created with Inkscape (http://www.inkscape.org/) -->

<svg
   xmlns:dc="http://purl.org/dc/elements/1.1/"
   xmlns:cc="http://creativecommons.org/ns#"
   xmlns:rdf="http://www.w3.org/1999/02/22-rdf-syntax-ns#"
   xmlns:svg="http://www.w3.org/2000/svg"
   xmlns="http://www.w3.org/2000/svg"
   xmlns:sodipodi="http://sodipodi.sourceforge.net/DTD/sodipodi-0.dtd"
   xmlns:inkscape="http://www.inkscape.org/namespaces/inkscape"
   version="1.0"
   width="64"
   height="64"
   viewBox="5.5 -3.5 64 64"
   id="Layer_1"
   xml:space="preserve"
   inkscape:version="0.48.3.1 r9886"
   sodipodi:docname="tea.svg"><sodipodi:namedview
   pagecolor="#ffffff"
   bordercolor="#666666"
   borderopacity="1"
   objecttolerance="10"
   gridtolerance="10"
   guidetolerance="10"
   inkscape:pageopacity="0"
   inkscape:pageshadow="2"
   inkscape:window-width="640"
   inkscape:window-height="480"
   id="namedview7"
   showgrid="false"
   inkscape:zoom="3.6875"
   inkscape:cx="60.528703"
   inkscape:cy="27.1323"
   inkscape:window-x="2275"
   inkscape:window-y="528"
   inkscape:window-maximized="0"
   inkscape:current-layer="Layer_1" /><metadata
   id="metadata13"><rdf:RDF><cc:Work
       rdf:about=""><dc:format>image/svg+xml</dc:format><dc:type
         rdf:resource="http://purl.org/dc/dcmitype/StillImage" /><dc:title /></cc:Work></rdf:RDF></metadata><defs
   id="defs11" />

<g
   id="g2985"
   transform="matrix(0.11811441,0,0,-0.11811441,7.9990603,54.597936)"><path
     id="path2987"
     d="M 339,64 H 173 Q 149.5,80.5 128.5,102 111.5,96 96,96 56,96 28,124.25 0,152.5 0,192 q 0,31.5 18.5,56.5 18.5,25 47.5,34.5 0.5,3.5 0.5,5 H 256 v -73.5 l -64,-37 47,-81.5 81,47 -32,55.5 V 288 H 445.5 Q 448,270.5 448,224 448,201.5 437.5,177 427,152.5 410,131.5 393,110.5 375.25,93.75 357.5,77 339,64 z M 64,224 q 0,7 0.5,23.5 Q 49.5,239 40.75,224.25 32,209.5 32,192 32,165.5 50.75,146.75 69.5,128 96,128 q 2,0 8,1 -40,50.5 -40,95 z m 224,160 q 0,-11.5 4.5,-27.5 Q 312,343 318,320 h -32 q -1,7 -2.5,12 -27.5,19 -27.5,52 0,26.5 18.75,45.25 Q 293.5,448 320,448 q 7,0 16,-2 -21,-5.5 -34.5,-22.5 Q 288,406.5 288,384 z m -96,32 q 0,-11.5 4.5,-27.5 Q 224,369 224,336 q 0,-7 -2.5,-16 h -32 q 2.5,9 2.5,16 0,12 -4.5,28 -27.5,19 -27.5,52 0,26.5 18.75,45.25 Q 197.5,480 224,480 q 7.5,0 16,-2 -21,-5.5 -34.5,-22.5 Q 192,438.5 192,416 z M 384,-32 H 128 Q 100.5,-32 70,-21.25 39.5,-10.5 19.75,4.75 0,20 0,32 H 512 Q 512,20 492.25,4.75 472.5,-10.5 442,-21.25 411.5,-32 384,-32 z"
     inkscape:connector-curvature="0"
     style="fill:currentColor" /></g></svg>