<?xml version="1.0" encoding="UTF-8" standalone="no"?>
<!-- Created with Inkscape (http://www.inkscape.org/) -->

<svg
   xmlns:dc="http://purl.org/dc/elements/1.1/"
   xmlns:cc="http://creativecommons.org/ns#"
   xmlns:rdf="http://www.w3.org/1999/02/22-rdf-syntax-ns#"
   xmlns:svg="http://www.w3.org/2000/svg"
   xmlns="http://www.w3.org/2000/svg"
   version="1.0"
   width="64"
   height="64"
   viewBox="5.5 -3.5 64 64"
   id="Layer_1"
   xml:space="preserve"><metadata
   id="metadata13"><rdf:RDF><cc:Work
       rdf:about=""><dc:format>image/svg+xml</dc:format><dc:type
         rdf:resource="http://purl.org/dc/dcmitype/StillImage" /><dc:title></dc:title></cc:Work></rdf:RDF></metadata><defs
   id="defs11" />

<g
   transform="matrix(0.03741499,0,0,-0.03741499,14.211156,54.196442)"
   id="g3235"><path
     d="M 8.897,67.143 C 2.975,174.089 0,254.312 0,307.785 c 0,106.978 -1.505,303.072 65.345,369.918 34.178,32.672 77.249,50.495 129.248,53.473 99.519,4.47998 248.098,7.42297 447.135,7.42297 199.073,0 347.617,-2.97498 447.167,-7.42297 105.473,-5.95398 178.241,-77.249 185.696,-182.721 4.448,-89.121 7.392,-169.344 7.392,-240.671 0,-142.594 2.9749,-303.041 -63.871,-368.385 -34.1429,-34.178 -77.249,-51.999 -129.216,-54.975 -99.55113,-4.44703 -248.13003,-7.42503 -447.16803,-7.42503 -199.041,0 -347.585,2.975 -447.135,7.423 -105.472,5.953 -178.241,77.248 -185.696,182.721 z m 90.622,531.808 v -81.697 h 90.59 V 32.966 h 87.647 l 0.004,484.291 h 90.626 v 81.697 z M 265.92,1185.7 196.095,1412.998 h 89.121 l 56.448,-225.792 h 5.95401 l 53.471,225.792 h 89.121 l -68.352,-219.839 c -22.271,-72.8 -34.143,-109.953 -34.143,-111.391 V 847.047 l -87.649,-0.003 v 224.318 c -4.48001,28.224 -10.399,47.52 -20.769,77.249 -5.98499,14.8151 -10.434,26.688 -13.377,37.089 z M 368.417,450.407 V 98.342 c 0,-47.52 17.825,-71.327 53.473,-71.327 31.199,0 62.401,17.857 90.626,51.999 v -46.05 h 77.249 L 589.76,450.407 H 512.511 V 132.488 c -20.8,-20.769 -35.648,-31.199 -46.05,-31.199 -13.377,0 -20.769,8.897 -20.769,28.224 l 0.005,320.894 h -77.28 z m 117.344,502.082 v 216.863 c 0,66.847 49.024,105.473 115.871,105.473 65.345,0 109.953,-43.071 109.953,-108.447 V 950.985 c 0,-71.295 -41.601,-114.37 -112.896,-114.37 -69.857,-6e-5 -112.928,46.0809 -112.928,115.874 z m 80.224,221.341 V 942.085 c 0,-22.271 10.399,-34.143 32.672,-34.143 22.273,0 34.143,11.872 34.143,37.121 v 227.297 c 0,17.8571 -16.352,31.199 -34.143,31.199 -17.856,-0.035 -32.672,-11.907 -32.672,-29.729 z M 665.504,598.951 V 32.966 h 78.719 L 744.222,64.2 c 19.327,-25.28 44.576,-37.153 74.273,-37.153 46.05,0 69.825,31.199 69.825,92.096 v 231.745 c 0,69.825 -25.249,105.473 -75.743,105.473 -25.249,0 -47.52,-13.377 -68.352,-40.127 v 182.721 z m 78.718,-487.232 v 261.44 c 10.399,10.399 22.271,16.352 32.672,16.352 22.271,0 32.672,-13.377 32.672,-41.601 V 128.071 c 0,-23.776 -8.89697,-35.648 -28.224,-35.648 -13.341,-0.03097 -26.717,5.92204 -37.12,19.296 z M 778.4,912.361 v 352.062 h 77.217 V 945.062 c 0,-19.327 7.42297,-28.224 20.8,-28.224 13.37703,0 28.224,10.399 46.05,31.199 l -0.004,316.386 H 999.68 V 847.017 h -77.217 v 46.014 C 894.207,858.888 863.04,841.063 831.837,841.063 796.226,841.0941 778.4,864.8391 778.4,912.3611 z M 947.744,339.016 V 150.345 c 0,-75.775 37.121,-129.248 112.864,-129.248 77.249,0 115.871,43.102 115.871,129.248 v 31.199 h -80.224 c 0,-1.505 0,-8.897 1.505,-19.327 0,-11.872 0,-20.8 -1.505,-25.249 -1.474,-4.48 -1.474,-11.903 -2.975,-19.327 -2.975,-17.857 -13.377,-23.776 -31.199,-23.776 -22.271,0 -34.1429,19.327 -34.1429,59.423 v 78.719 h 148.543 v 106.978 c 0,75.743 -35.6479,121.825 -111.391,121.825 -71.29708,-10e-4 -117.34598,-50.53 -117.34598,-121.794 z m 148.546,-41.601 h -68.3199 l -10e-4,44.544 c 0,31.199 11.8719,46.014 34.1429,46.014 22.271,0 34.1429,-14.847 34.1429,-46.014 l 0,-44.544 h 0.032 z"
     id="path3237"
     style="fill:currentColor" /></g></svg>