<?xml version="1.0" encoding="UTF-8" standalone="no"?>
<!-- Created with Inkscape (http://www.inkscape.org/) -->

<svg
   xmlns:dc="http://purl.org/dc/elements/1.1/"
   xmlns:cc="http://creativecommons.org/ns#"
   xmlns:rdf="http://www.w3.org/1999/02/22-rdf-syntax-ns#"
   xmlns:svg="http://www.w3.org/2000/svg"
   xmlns="http://www.w3.org/2000/svg"
   version="1.0"
   width="64"
   height="64"
   viewBox="5.5 -3.5 64 64"
   id="Layer_1"
   xml:space="preserve"><metadata
   id="metadata13"><rdf:RDF><cc:Work
       rdf:about=""><dc:format>image/svg+xml</dc:format><dc:type
         rdf:resource="http://purl.org/dc/dcmitype/StillImage" /><dc:title></dc:title></cc:Work></rdf:RDF></metadata><defs
   id="defs11" />

<g
   transform="matrix(0.06364405,0,0,-0.06364405,18.994972,65.258677)"
   id="g3013"><path
     d="m 595,576 q 0,-13 -10,-23 L 119,87 Q 109,77 96,77 83,77 73,87 l -50,50 q -10,10 -10,23 0,13 10,23 L 416,576 23,969 q -10,10 -10,23 0,13 10,23 l 50,50 q 10,10 23,10 13,0 23,-10 L 585,599 q 10,-10 10,-23 z"
     id="path3015"
     style="fill:currentColor" /></g></svg>