<?xml version="1.0" encoding="UTF-8" standalone="no"?>
<!-- Created with Inkscape (http://www.inkscape.org/) -->

<svg
   xmlns:dc="http://purl.org/dc/elements/1.1/"
   xmlns:cc="http://creativecommons.org/ns#"
   xmlns:rdf="http://www.w3.org/1999/02/22-rdf-syntax-ns#"
   xmlns:svg="http://www.w3.org/2000/svg"
   xmlns="http://www.w3.org/2000/svg"
   version="1.0"
   width="64"
   height="64"
   viewBox="5.5 -3.5 64 64"
   id="Layer_1"
   xml:space="preserve"><metadata
   id="metadata13"><rdf:RDF><cc:Work
       rdf:about=""><dc:format>image/svg+xml</dc:format><dc:type
         rdf:resource="http://purl.org/dc/dcmitype/StillImage" /><dc:title></dc:title></cc:Work></rdf:RDF></metadata><defs
   id="defs11" />

<path
   d="m 52.174813,13.471 h -8.627 l 1.987,-10.216 7.61,-3.815 0.736,-2.75 -10.25,5.264 -2.259,11.517 h -19.088 c -1.18,0 -2.136,0.956 -2.136,2.135 l 3.866,42.568 c 0,1.18 0.956,2.136 2.136,2.136 h 22.153 c 1.181,0 2.137,-0.956 2.137,-2.136 l 3.87,-42.568 c 0.001,-1.18 -0.955,-2.135 -2.135,-2.135 z m -3.873,44.703 h -22.152 l -3.868,-42.568 h 18.643 l -2.667,12.811 h -12.773 l 2.402,27.623 h 18.682 l 2.402,-27.623 h -8.535 l 2.664,-12.811 h 9.072 l -3.87,42.568 z m -12.51,-10.863 c 1.134,0 2.052,0.919 2.052,2.05 0,1.134 -0.918,2.052 -2.052,2.052 -1.131,0 -2.05,-0.918 -2.05,-2.052 0,-1.131 0.919,-2.05 2.05,-2.05 z m -2.423,-3.559 c 0,-0.874 0.708,-1.584 1.582,-1.584 0.874,0 1.584,0.71 1.584,1.584 0,0.874 -0.71,1.582 -1.584,1.582 -0.874,0 -1.582,-0.708 -1.582,-1.582 z m 2.273,-5.809 c -1.255,0 -2.272,-1.018 -2.272,-2.272 0,-1.254 1.018,-2.271 2.272,-2.271 1.254,0 2.271,1.018 2.271,2.271 0,1.254 -1.017,2.272 -2.271,2.272 z m 1.734,-5.806 c -0.958,0 -1.734,-0.777 -1.734,-1.735 0,-0.958 0.776,-1.735 1.734,-1.735 0.959,0 1.735,0.777 1.735,1.735 0,0.958 -0.776,1.735 -1.735,1.735 z m 3.125,11.167 c 0.766,0 1.389,0.623 1.389,1.389 0,0.766 -0.623,1.389 -1.389,1.389 -0.767,0 -1.39,-0.623 -1.39,-1.389 0,-0.766 0.623,-1.389 1.39,-1.389 z m 1.397,10.032 c 0.523,0 0.948,0.424 0.948,0.948 0,0.521 -0.425,0.946 -0.948,0.946 -0.522,0 -0.947,-0.425 -0.947,-0.946 0,-0.524 0.425,-0.948 0.947,-0.948 z m -0.187,-2.838 c 0,-0.627 0.509,-1.136 1.136,-1.136 0.627,0 1.136,0.509 1.136,1.136 0,0.628 -0.509,1.137 -1.136,1.137 -0.627,0 -1.136,-0.509 -1.136,-1.137 z m 2.27,-3.534 c -0.627,0 -1.136,-0.509 -1.136,-1.136 0,-0.627 0.509,-1.136 1.136,-1.136 0.628,0 1.137,0.509 1.137,1.136 0,0.627 -0.51,1.136 -1.137,1.136 z m 0.001,-10.725 c -1.08,0 -1.957,-0.877 -1.957,-1.957 0,-1.079 0.877,-1.957 1.957,-1.957 1.079,0 1.956,0.877 1.956,1.957 0.001,1.08 -0.876,1.957 -1.956,1.957 z m -1.329,2.71 c 0,0.941 -0.762,1.703 -1.701,1.703 -0.94,0 -1.702,-0.762 -1.702,-1.703 0,-0.939 0.762,-1.701 1.702,-1.701 0.94,0 1.701,0.761 1.701,1.701 z m -13.368,-4.982 c -1.001,0 -1.814,-0.812 -1.814,-1.814 0,-1.001 0.812,-1.814 1.814,-1.814 1.002,0 1.814,0.813 1.814,1.814 0,1.002 -0.813,1.814 -1.814,1.814 z m 1.813,4.543 c 0,0.628 -0.509,1.137 -1.136,1.137 -0.627,0 -1.136,-0.509 -1.136,-1.137 0,-0.627 0.509,-1.135 1.136,-1.135 0.627,0 1.136,0.508 1.136,1.135 z"
   id="path3" /></svg>