<?xml version="1.0" encoding="UTF-8" standalone="no"?>
<!-- Created with Inkscape (http://www.inkscape.org/) -->

<svg
   xmlns:dc="http://purl.org/dc/elements/1.1/"
   xmlns:cc="http://creativecommons.org/ns#"
   xmlns:rdf="http://www.w3.org/1999/02/22-rdf-syntax-ns#"
   xmlns:svg="http://www.w3.org/2000/svg"
   xmlns="http://www.w3.org/2000/svg"
   version="1.0"
   width="64"
   height="64"
   viewBox="5.5 -3.5 64 64"
   id="Layer_1"
   xml:space="preserve"><metadata
   id="metadata13"><rdf:RDF><cc:Work
       rdf:about=""><dc:format>image/svg+xml</dc:format><dc:type
         rdf:resource="http://purl.org/dc/dcmitype/StillImage" /><dc:title></dc:title></cc:Work></rdf:RDF></metadata><defs
   id="defs11" />

<g
   transform="matrix(0.03574447,0,0,-0.03574447,5.4529618,49.23765)"
   id="g3020"><path
     d="m 1664,32 v 768 q -32,-36 -69,-66 -268,-206 -426,-338 -51,-43 -83,-67 -32,-24 -86.5,-48.5 Q 945,256 897,256 h -1 -1 Q 847,256 792.5,280.5 738,305 706,329 674,353 623,396 465,528 197,734 160,764 128,800 V 32 Q 128,19 137.5,9.5 147,0 160,0 h 1472 q 13,0 22.5,9.5 9.5,9.5 9.5,22.5 z m 0,1051 v 11 13.5 l -0.5,13 -3,12.5 -5.5,9 -9,7.5 -14,2.5 H 160 q -13,0 -22.5,-9.5 Q 128,1133 128,1120 128,952 275,836 468,684 676,519 682,514 711,489.5 740,465 757,452 774,439 801.5,420.5 829,402 852,393 q 23,-9 43,-9 h 1 1 q 20,0 43,9 23,9 50.5,27.5 27.5,18.5 44.5,31.5 17,13 46,37.5 29,24.5 35,29.5 208,165 401,317 54,43 100.5,115.5 46.5,72.5 46.5,131.5 z m 128,37 V 32 q 0,-66 -47,-113 -47,-47 -113,-47 H 160 Q 94,-128 47,-81 0,-34 0,32 v 1088 q 0,66 47,113 47,47 113,47 h 1472 q 66,0 113,-47 47,-47 47,-113 z"
     id="path3022"
     style="fill:currentColor" /></g></svg>