<?xml version="1.0" encoding="UTF-8" standalone="no"?>
<!-- Created with Inkscape (http://www.inkscape.org/) -->

<svg
   xmlns:dc="http://purl.org/dc/elements/1.1/"
   xmlns:cc="http://creativecommons.org/ns#"
   xmlns:rdf="http://www.w3.org/1999/02/22-rdf-syntax-ns#"
   xmlns:svg="http://www.w3.org/2000/svg"
   xmlns="http://www.w3.org/2000/svg"
   version="1.0"
   width="64"
   height="64"
   viewBox="5.5 -3.5 64 64"
   id="Layer_1"
   xml:space="preserve"><metadata
   id="metadata13"><rdf:RDF><cc:Work
       rdf:about=""><dc:format>image/svg+xml</dc:format><dc:type
         rdf:resource="http://purl.org/dc/dcmitype/StillImage" /><dc:title></dc:title></cc:Work></rdf:RDF></metadata><defs
   id="defs11" />

<g
   transform="matrix(0.04166666,0,0,-0.04166666,22.072815,55.166657)"
   id="g3534"><path
     d="m 560,1125 q -49,0 -62,-15.5 -13,-15.5 -13,-66.5 v -88 h 217 q 16,0 27,-12 11,-13 10,-29 L 725,714 Q 723,699 712.5,688.5 702,678 687,678 H 485 V -90 q 0,-16 -11,-27 -11,-11 -26,-11 H 198 q -16,0 -27,11 -11,11 -11,27 V 678 H 38 Q 22,678 11,689.5 0,701 0,717 v 200 q 0,16 11,27 11,11 27,11 h 122 v 103 q 0,177 88,263.5 88,86.5 267,86.5 120,0 225,-30 14,-4 22,-16 8,-12 6,-26 l -27,-195 q -2,-16 -16,-26 -14,-9 -30,-6 -76,16 -135,16 z"
     id="path3536"
     style="fill:currentColor" /></g></svg>