<?xml version="1.0" encoding="UTF-8" standalone="no"?>
<!-- Created with Inkscape (http://www.inkscape.org/) -->

<svg
   xmlns:dc="http://purl.org/dc/elements/1.1/"
   xmlns:cc="http://creativecommons.org/ns#"
   xmlns:rdf="http://www.w3.org/1999/02/22-rdf-syntax-ns#"
   xmlns:svg="http://www.w3.org/2000/svg"
   xmlns="http://www.w3.org/2000/svg"
   xmlns:sodipodi="http://sodipodi.sourceforge.net/DTD/sodipodi-0.dtd"
   xmlns:inkscape="http://www.inkscape.org/namespaces/inkscape"
   version="1.0"
   width="64"
   height="64"
   viewBox="5.5 -3.5 64 64"
   id="Layer_1"
   xml:space="preserve"
   inkscape:version="0.48.3.1 r9886"
   sodipodi:docname="facetime-video.svg"><sodipodi:namedview
   pagecolor="#ffffff"
   bordercolor="#666666"
   borderopacity="1"
   objecttolerance="10"
   gridtolerance="10"
   guidetolerance="10"
   inkscape:pageopacity="0"
   inkscape:pageshadow="2"
   inkscape:window-width="640"
   inkscape:window-height="480"
   id="namedview7"
   showgrid="false"
   inkscape:zoom="3.6875"
   inkscape:cx="23.030583"
   inkscape:cy="39.232313"
   inkscape:window-x="65"
   inkscape:window-y="24"
   inkscape:window-maximized="0"
   inkscape:current-layer="Layer_1" /><metadata
   id="metadata13"><rdf:RDF><cc:Work
       rdf:about=""><dc:format>image/svg+xml</dc:format><dc:type
         rdf:resource="http://purl.org/dc/dcmitype/StillImage" /><dc:title /></cc:Work></rdf:RDF></metadata><defs
   id="defs11" />

<g
   id="g2986"
   transform="matrix(0.12400583,0,0,-0.12400583,5.9418817,56.314418)"><path
     id="path2988"
     d="M 512,64 V 60 Q 512,52 511.75,48.5 511.5,45 510.25,40.25 509,35.5 505.5,33.75 502,32 496,32 L 384,106.5 V 32 Q 384,19 374.5,9.5 365,0 352,0 H 64 Q 50.5,0 41.25,9.25 32,18.5 32,32 v 192 q 0,13 9.25,22.5 Q 50.5,256 64,256 h 32 224 32 q 13,0 22.5,-9.5 Q 384,237 384,224 V 149.5 L 496,224 q 6,0 9.5,-1.75 3.5,-1.75 4.75,-6.5 1.25,-4.75 1.5,-8.25 Q 512,204 512,196 V 192 64 z M 0,351.75 q 0,39.75 28,68 28,28.25 67.75,28.25 39.75,0 68,-28 Q 192,392 192,352 192,312 163.75,284 135.5,256 95.75,256 56,256 28,284 0,312 0,351.75 z m 224,0 q 0,39.75 28,68 28,28.25 67.75,28.25 39.75,0 68,-28 28.25,-28 28.25,-68 0,-40 -28.25,-68 -28.25,-28 -68,-28 -39.75,0 -67.75,28 -28,28 -28,67.75 z"
     inkscape:connector-curvature="0"
     style="fill:currentColor" /></g></svg>