<?xml version="1.0" encoding="UTF-8" standalone="no"?>
<!-- Created with Inkscape (http://www.inkscape.org/) -->

<svg
   xmlns:dc="http://purl.org/dc/elements/1.1/"
   xmlns:cc="http://creativecommons.org/ns#"
   xmlns:rdf="http://www.w3.org/1999/02/22-rdf-syntax-ns#"
   xmlns:svg="http://www.w3.org/2000/svg"
   xmlns="http://www.w3.org/2000/svg"
   version="1.0"
   width="64"
   height="64"
   viewBox="5.5 -3.5 64 64"
   id="Layer_1"
   xml:space="preserve"><metadata
   id="metadata13"><rdf:RDF><cc:Work
       rdf:about=""><dc:format>image/svg+xml</dc:format><dc:type
         rdf:resource="http://purl.org/dc/dcmitype/StillImage" /><dc:title></dc:title></cc:Work></rdf:RDF></metadata><defs
   id="defs11" />

<g
   transform="matrix(0.03846154,0,0,-0.03846154,5.681454,50.653846)"
   id="g3614"><path
     d="m 876,71 q 0,21 -4.5,40.5 -4.5,19.5 -9.5,36 -5,16.5 -17.5,34.5 -12.5,18 -21,30.5 Q 815,225 797,242 q -18,17 -27.5,25.5 -9.5,8.5 -32,25.5 -22.5,17 -31,23 -8.5,6 -33,23 -24.5,17 -30.5,21 -17,2 -50,2 -54,0 -106,-7 -52,-7 -108,-25 -56,-18 -98,-46 -42,-28 -69,-75 -27,-47 -27,-107 0,-68 35.5,-121.5 35.5,-53.5 93,-84 Q 371,-134 434,-149 q 63,-15 127,-15 59,0 112.5,12.5 53.5,12.5 100.5,39 Q 821,-86 848.5,-39 876,8 876,71 z M 756,933 q 0,60 -16.5,127.5 -16.5,67.5 -47,130.5 -30.5,63 -84,104 -53.5,41 -119.5,41 -93,0 -144,-69 -51,-69 -51,-165 0,-47 11.5,-99 11.5,-52 35.5,-104 24,-52 56,-93.5 32,-41.5 78,-67.5 46,-26 97,-26 97,0 140.5,60.5 Q 756,833 756,933 z m -131,475 h 437 L 927,1329 H 792 q 71,-45 110,-126 39,-81 39,-169 0,-74 -23,-131.5 Q 895,845 862,810 829,775 796,745.5 763,716 740,684.5 717,653 717,617 q 0,-26 16.5,-51 16.5,-25 43,-48 26.5,-23 58.5,-48 32,-25 64,-55.5 32,-30.5 58.5,-66 26.5,-35.5 43,-85 Q 1017,214 1017,157 1017,-3 877,-125 725,-256 457,-256 q -59,0 -119.5,10 -60.5,10 -122,33.5 Q 154,-189 107,-154.5 60,-120 30,-65.5 0,-11 0,56 q 0,61 37,135 32,64 96,110.5 64,46.5 145,71 81,24.5 155,36 74,11.5 150,13.5 -64,83 -64,149 0,12 2,23.5 2,11.5 5,19.5 3,8 8,21.5 5,13.5 7,21.5 -40,-5 -70,-5 -149,0 -255.5,98 Q 109,848 109,996 q 0,140 95,250.5 95,110.5 234,141.5 94,20 187,20 z M 1664,1152 V 1024 H 1408 V 768 h -128 v 256 h -256 v 128 h 256 v 256 h 128 v -256 h 256 z"
     id="path3616"
     style="fill:currentColor" /></g></svg>