<?xml version="1.0" encoding="UTF-8" standalone="no"?>
<!-- Created with Inkscape (http://www.inkscape.org/) -->

<svg
   xmlns:dc="http://purl.org/dc/elements/1.1/"
   xmlns:cc="http://creativecommons.org/ns#"
   xmlns:rdf="http://www.w3.org/1999/02/22-rdf-syntax-ns#"
   xmlns:svg="http://www.w3.org/2000/svg"
   xmlns="http://www.w3.org/2000/svg"
   version="1.0"
   width="64"
   height="64"
   viewBox="5.5 -3.5 64 64"
   id="Layer_1"
   xml:space="preserve"><metadata
   id="metadata13"><rdf:RDF><cc:Work
       rdf:about=""><dc:format>image/svg+xml</dc:format><dc:type
         rdf:resource="http://purl.org/dc/dcmitype/StillImage" /><dc:title></dc:title></cc:Work></rdf:RDF></metadata><defs
   id="defs11" />

<g
   transform="matrix(0.04166667,0,0,-0.04166667,5.4687507,55.166666)"
   id="g3400"><path
     d="m 1024,160 v 64 q 0,14 -9,23 -9,9 -23,9 h -96 v 480 q 0,14 -9,23 -9,9 -23,9 H 544 q -14,0 -23,-9 -9,-9 -9,-23 v -64 q 0,-14 9,-23 9,-9 23,-9 h 96 V 256 h -96 q -14,0 -23,-9 -9,-9 -9,-23 v -64 q 0,-14 9,-23 9,-9 23,-9 h 448 q 14,0 23,9 9,9 9,23 z M 896,928 v 192 q 0,14 -9,23 -9,9 -23,9 H 672 q -14,0 -23,-9 -9,-9 -9,-23 V 928 q 0,-14 9,-23 9,-9 23,-9 h 192 q 14,0 23,9 9,9 9,23 z M 1536,640 Q 1536,431 1433,254.5 1330,77.999995 1153.5,-25.000005 977,-128.00001 768,-128.00001 q -209,0 -385.5,103.000005 Q 206,77.999995 103,254.5 0,431 0,640 0,849 103,1025.5 206,1202 382.5,1305 559,1408 768,1408 977,1408 1153.5,1305 1330,1202 1433,1025.5 1536,849 1536,640 z"
     id="path3402"
     style="fill:currentColor" /></g></svg>