<?xml version="1.0" encoding="UTF-8" standalone="no"?>
<!-- Created with Inkscape (http://www.inkscape.org/) -->

<svg
   xmlns:dc="http://purl.org/dc/elements/1.1/"
   xmlns:cc="http://creativecommons.org/ns#"
   xmlns:rdf="http://www.w3.org/1999/02/22-rdf-syntax-ns#"
   xmlns:svg="http://www.w3.org/2000/svg"
   xmlns="http://www.w3.org/2000/svg"
   xmlns:sodipodi="http://sodipodi.sourceforge.net/DTD/sodipodi-0.dtd"
   xmlns:inkscape="http://www.inkscape.org/namespaces/inkscape"
   version="1.0"
   width="64"
   height="64"
   viewBox="5.5 -3.5 64 64"
   id="Layer_1"
   xml:space="preserve"
   inkscape:version="0.48.3.1 r9886"
   sodipodi:docname="quote-left.svg"><sodipodi:namedview
   pagecolor="#ffffff"
   bordercolor="#666666"
   borderopacity="1"
   objecttolerance="10"
   gridtolerance="10"
   guidetolerance="10"
   inkscape:pageopacity="0"
   inkscape:pageshadow="2"
   inkscape:window-width="962"
   inkscape:window-height="480"
   id="namedview7"
   showgrid="false"
   inkscape:zoom="3.6875"
   inkscape:cx="3.793802"
   inkscape:cy="22.515655"
   inkscape:window-x="1861"
   inkscape:window-y="654"
   inkscape:window-maximized="0"
   inkscape:current-layer="Layer_1" /><metadata
   id="metadata13"><rdf:RDF><cc:Work
       rdf:about=""><dc:format>image/svg+xml</dc:format><dc:type
         rdf:resource="http://purl.org/dc/dcmitype/StillImage" /><dc:title /></cc:Work></rdf:RDF></metadata><defs
   id="defs11" />

<g
   id="g2986"
   transform="matrix(0.13760167,0,0,-0.13760167,-6.919798,57.564854)"><path
     id="path2988"
     d="M 394.176,426.514 H 253.741 c -86.8936,0 -157.586,-76.498 -157.586,-170.533 0,-85.9434 57.6914,-156.6 134.336,-168.687 V 9.1319 c 0,-7.67969 4.68066,-14.6094 11.8027,-17.4619 2.28613,-0.914062 4.66309,-1.35352 7.02246,-1.35352 5.03809,0 9.98438,2.02148 13.6055,5.78711 l 85.5312,89.335 h 45.7139 c 86.8936,0 157.586,76.498 157.586,170.542 0.009,94.0352 -70.6836,170.533 -157.577,170.533 z M 307.492,260.581 c 0,-32.2383 -6.25781,-55.2969 -18.6094,-68.5078 -12.3887,-13.2852 -29.3936,-20.0234 -50.4951,-20.0234 -1.72754,0 -3.1084,1.38965 -3.1084,3.11719 v 26.3408 c 0,1.71875 1.37109,3.12695 3.10938,3.12695 16.8965,0 25.0889,11.6113 25.0889,35.4658 v 10.7148 h -39.9629 c -1.71875,0 -3.12695,1.39941 -3.12695,3.12695 v 73.2793 c 0,1.71875 1.4082,3.11816 3.12695,3.11816 h 80.8594 c 1.72754,0 3.12695,-1.38965 3.12695,-3.11719 v -66.6416 h -0.009 z M 428.53,260.58 c 0,-32.2383 -6.2168,-55.2959 -18.4688,-68.5068 -12.3252,-13.2852 -29.3584,-20.0234 -50.6426,-20.0234 -1.72754,0 -3.12695,1.38965 -3.12695,3.11719 v 26.3408 c 0,1.71875 1.38965,3.12695 3.12695,3.12695 16.8779,0 25.0879,11.6113 25.0879,35.4648 v 10.7148 h -39.9629 c -1.72754,0 -3.12695,1.39941 -3.12695,3.12695 v 73.2793 c 0,1.71875 1.38965,3.11816 3.12695,3.11816 h 80.8594 c 1.72754,0 3.12695,-1.38965 3.12695,-3.11719 v -66.6416 z"
     inkscape:connector-curvature="0"
     style="fill:currentColor" /></g></svg>