<?xml version="1.0" encoding="UTF-8" standalone="no"?>
<!-- Created with Inkscape (http://www.inkscape.org/) -->

<svg
   xmlns:dc="http://purl.org/dc/elements/1.1/"
   xmlns:cc="http://creativecommons.org/ns#"
   xmlns:rdf="http://www.w3.org/1999/02/22-rdf-syntax-ns#"
   xmlns:svg="http://www.w3.org/2000/svg"
   xmlns="http://www.w3.org/2000/svg"
   version="1.0"
   width="64"
   height="64"
   viewBox="5.5 -3.5 64 64"
   id="Layer_1"
   xml:space="preserve"><metadata
   id="metadata13"><rdf:RDF><cc:Work
       rdf:about=""><dc:format>image/svg+xml</dc:format><dc:type
         rdf:resource="http://purl.org/dc/dcmitype/StillImage" /><dc:title></dc:title></cc:Work></rdf:RDF></metadata><defs
   id="defs11" />

<g
   transform="matrix(0.05306959,0,0,-0.05306959,0.10786018,58.990561)"
   id="g3301"><path
     d="m 1298,214 q 0,-40 -28,-68 L 1134,10 q -28,-28 -68,-28 -40,0 -68,28 L 704,304 410,10 q -28,-28 -68,-28 -40,0 -68,28 L 138,146 q -28,28 -28,68 0,40 28,68 L 432,576 138,870 q -28,28 -28,68 0,40 28,68 l 136,136 q 28,28 68,28 40,0 68,-28 l 294,-294 294,294 q 28,28 68,28 40,0 68,-28 l 136,-136 q 28,-28 28,-68 0,-40 -28,-68 L 976,576 1270,282 q 28,-28 28,-68 z"
     id="path3303"
     style="fill:currentColor" /></g></svg>