<?xml version="1.0" encoding="UTF-8" standalone="no"?>
<!-- Created with Inkscape (http://www.inkscape.org/) -->

<svg
   xmlns:dc="http://purl.org/dc/elements/1.1/"
   xmlns:cc="http://creativecommons.org/ns#"
   xmlns:rdf="http://www.w3.org/1999/02/22-rdf-syntax-ns#"
   xmlns:svg="http://www.w3.org/2000/svg"
   xmlns="http://www.w3.org/2000/svg"
   version="1.0"
   width="64"
   height="64"
   viewBox="5.5 -3.5 64 64"
   id="Layer_1"
   xml:space="preserve"><metadata
   id="metadata13"><rdf:RDF><cc:Work
       rdf:about=""><dc:format>image/svg+xml</dc:format><dc:type
         rdf:resource="http://purl.org/dc/dcmitype/StillImage" /><dc:title></dc:title></cc:Work></rdf:RDF></metadata><defs
   id="defs11" />

<g
   transform="matrix(0.04075829,0,0,-0.04075829,6.8640166,55.139985)"
   id="g3581"><path
     d="M 1536,196.31879 V 65.439595 Q 1536,38.85476 1516.5726,19.42738 1497.1452,0 1470.5604,0 H 30.889306 Q 4.3044699,0 -15.12291,19.42738 -34.55029,38.85476 -34.55029,65.439595 V 196.31879 q 0,26.58483 19.42738,46.01221 19.4273799,19.42738 46.012216,19.42738 H 1470.5604 q 26.5848,0 46.0122,-19.42738 Q 1536,222.90362 1536,196.31879 z m 0,523.51676 V 588.95636 q 0,-26.58484 -19.4274,-46.01222 -19.4274,-19.42738 -46.0122,-19.42738 H 30.889306 q -26.5848361,0 -46.012216,19.42738 -19.42738,19.42738 -19.42738,46.01222 v 130.87919 q 0,26.58484 19.42738,46.01222 19.4273799,19.42737 46.012216,19.42737 H 1470.5604 q 26.5848,0 46.0122,-19.42737 Q 1536,746.42039 1536,719.83555 z m 0,523.51675 v -130.8792 q 0,-26.5848 -19.4274,-46.0122 -19.4274,-19.4274 -46.0122,-19.4274 H 30.889306 q -26.5848361,0 -46.012216,19.4274 -19.42738,19.4274 -19.42738,46.0122 v 130.8792 q 0,26.5848 19.42738,46.0122 19.4273799,19.4274 46.012216,19.4274 H 1470.5604 q 26.5848,0 46.0122,-19.4274 Q 1536,1269.9371 1536,1243.3523 z"
     id="path3583"
     style="fill:currentColor" /></g></svg>