<?xml version="1.0" encoding="UTF-8" standalone="no"?>
<!-- Created with Inkscape (http://www.inkscape.org/) -->

<svg
   xmlns:dc="http://purl.org/dc/elements/1.1/"
   xmlns:cc="http://creativecommons.org/ns#"
   xmlns:rdf="http://www.w3.org/1999/02/22-rdf-syntax-ns#"
   xmlns:svg="http://www.w3.org/2000/svg"
   xmlns="http://www.w3.org/2000/svg"
   version="1.0"
   width="64"
   height="64"
   viewBox="5.5 -3.5 64 64"
   id="Layer_1"
   xml:space="preserve"><metadata
   id="metadata13"><rdf:RDF><cc:Work
       rdf:about=""><dc:format>image/svg+xml</dc:format><dc:type
         rdf:resource="http://purl.org/dc/dcmitype/StillImage" /><dc:title></dc:title></cc:Work></rdf:RDF></metadata><defs
   id="defs11" />

<path
   d="m 57.326033,46.948251 c -0.09894,0 -0.197722,0 -0.296657,0 -3.213519,-0.527305 -5.401204,-2.794789 -7.268055,-4.894813 -1.055056,-1.187066 -2.670193,-3.870017 -4.598155,-3.559865 -2.737391,0.440386 -1.379747,5.115526 -2.521573,7.119729 -0.922449,1.618849 -4.855211,1.325604 -7.564565,1.038294 C 26.520748,45.74383 22.149382,41.177415 18.316,36.268659 14.219933,31.023496 11.030591,25.535074 8.081332,19.507485 7.1264744,17.556086 5.8572778,15.398213 5.8564179,12.981068 c 1.3870395,-1.13026 3.6497816,-0.741642 5.9331661,-0.741642 1.936566,0 4.960226,-0.424659 6.378091,0.296658 0.841757,0.428368 1.693009,2.702528 2.373241,4.153172 1.561298,3.330108 2.999038,5.727823 4.894813,8.45468 0.821441,1.181725 2.081929,3.411684 3.559866,3.11488 1.434479,-0.288052 1.568566,-3.819586 1.631604,-6.081434 0.07134,-2.566218 -0.0023,-5.756598 -0.741636,-7.11973 -0.696549,-1.284369 -1.972911,-1.310178 -3.26321,-2.076584 1.07404,-2.158614 4.016861,-2.373245 7.564712,-2.373245 2.981976,0 7.143164,-0.331958 8.306201,1.631603 1.184099,1.998866 0.371858,5.604268 0.296654,8.306352 -0.0844,3.035525 -0.607104,6.17043 1.483278,7.564711 1.61173,-0.174583 2.47633,-1.740923 3.411536,-2.966553 2.045884,-2.680875 3.313344,-5.002054 4.894813,-8.45468 0.649527,-1.417863 1.345481,-3.856666 2.521572,-4.301503 1.790166,-0.676967 4.646066,-0.148327 7.268054,-0.148327 2.14764,0 5.985468,-0.592717 6.674741,0.889968 0.572396,1.230971 -1.110965,4.337248 -1.631594,5.191467 -1.98493,3.256832 -3.93544,5.330601 -6.081441,8.158023 -0.857036,1.129367 -2.625844,2.939558 -2.521568,4.746486 0.0792,1.373662 1.458803,2.425454 2.521568,3.411684 2.303979,2.137699 3.918078,3.697513 5.784779,6.081435 0.703523,0.897976 2.221363,2.843145 2.076594,4.004847 -0.294283,2.362861 -4.027996,2.218834 -7.38791,2.074955 -1.7918,-0.07683 -3.477395,-0.153667 -4.478309,0.14996"
   id="path28"
   style="fill:#000000;fill-opacity:1;fill-rule:evenodd;stroke:none" /></svg>