<?xml version="1.0" encoding="UTF-8" standalone="no"?>
<!-- Created with Inkscape (http://www.inkscape.org/) -->

<svg
   xmlns:dc="http://purl.org/dc/elements/1.1/"
   xmlns:cc="http://creativecommons.org/ns#"
   xmlns:rdf="http://www.w3.org/1999/02/22-rdf-syntax-ns#"
   xmlns:svg="http://www.w3.org/2000/svg"
   xmlns="http://www.w3.org/2000/svg"
   version="1.0"
   width="64"
   height="64"
   viewBox="5.5 -3.5 64 64"
   id="Layer_1"
   xml:space="preserve"><metadata
   id="metadata13"><rdf:RDF><cc:Work
       rdf:about=""><dc:format>image/svg+xml</dc:format><dc:type
         rdf:resource="http://purl.org/dc/dcmitype/StillImage" /><dc:title></dc:title></cc:Work></rdf:RDF></metadata><defs
   id="defs11" />

<g
   transform="matrix(0.03571429,0,0,-0.03571429,12.470849,51.357142)"
   id="g3765"><path
     d="M 640,1472 V 832 Q 640,771 604.5,721 569,671 512,651 v -779 q 0,-52 -38,-90 -38,-38 -90,-38 H 256 q -52,0 -90,38 -38,38 -38,90 V 651 Q 71,671 35.5,721 0,771 0,832 v 640 q 0,26 19,45 19,19 45,19 26,0 45,-19 19,-19 19,-45 v -416 q 0,-26 19,-45 19,-19 45,-19 26,0 45,19 19,19 19,45 v 416 q 0,26 19,45 19,19 45,19 26,0 45,-19 19,-19 19,-45 v -416 q 0,-26 19,-45 19,-19 45,-19 26,0 45,19 19,19 19,45 v 416 q 0,26 19,45 19,19 45,19 26,0 45,-19 19,-19 19,-45 z m 768,0 V -128 q 0,-52 -38,-90 -38,-38 -90,-38 h -128 q -52,0 -90,38 -38,38 -38,90 V 384 H 800 q -13,0 -22.5,9.5 Q 768,403 768,416 v 800 q 0,132 94,226 94,94 226,94 h 256 q 26,0 45,-19 19,-19 19,-45 z"
     id="path3767"
     style="fill:currentColor" /></g></svg>