<?xml version="1.0" encoding="UTF-8" standalone="no"?>
<!-- Created with Inkscape (http://www.inkscape.org/) -->

<svg
   xmlns:dc="http://purl.org/dc/elements/1.1/"
   xmlns:cc="http://creativecommons.org/ns#"
   xmlns:rdf="http://www.w3.org/1999/02/22-rdf-syntax-ns#"
   xmlns:svg="http://www.w3.org/2000/svg"
   xmlns="http://www.w3.org/2000/svg"
   version="1.0"
   width="64"
   height="64"
   viewBox="5.5 -3.5 64 64"
   id="Layer_1"
   xml:space="preserve"><metadata
   id="metadata13"><rdf:RDF><cc:Work
       rdf:about=""><dc:format>image/svg+xml</dc:format><dc:type
         rdf:resource="http://purl.org/dc/dcmitype/StillImage" /><dc:title></dc:title></cc:Work></rdf:RDF></metadata><defs
   id="defs11" />

<g
   transform="matrix(0.36141444,0,0,-0.36141444,-259.95728,284.30311)"
   id="g3435"><path
     d="m 842.08035,650.49553 v 83.10714 h -37.1429 v -83.10714 q 0,-2.90179 2.1473,-4.46875 2.1474,-1.56697 5.2813,-1.56697 h 22.2857 q 3.1339,0 5.2812,1.56697 2.1474,1.56696 2.1474,4.46875 z m -52.9286,97.96429 h 22.6339 l -14.625,18.6875 q -2.7857,3.59821 -8.0089,3.59821 -4.6429,0 -7.8929,-3.25 -3.25,-3.25 -3.25,-7.89285 0,-4.64286 3.25,-7.89286 3.25,-3.25 7.8929,-3.25 z m 79.8571,11.14286 q 0,4.64285 -3.25,7.89285 -3.25,3.25 -7.8928,3.25 -5.2232,0 -8.0089,-3.59821 l -14.509,-18.6875 h 22.5179 q 4.6428,0 7.8928,3.25 3.25,3.25 3.25,7.89286 z m 43.6429,-29.71429 v -37.14286 q 0,-1.625 -1.1607,-2.55357 -1.1607,-0.92857 -3.1339,-1.21875 -1.9733,-0.29018 -3.7143,-0.29018 -1.7411,0 -4.0045,0.17411 -2.2634,0.1741 -2.8437,0.1741 v -48.28571 q 0,-4.64286 -3.25,-7.89286 -3.25,-3.25 -7.8929,-3.25 h -126.2857 q -4.6429,0 -7.8929,3.25 -3.25,3.25 -3.25,7.89286 v 48.28571 q -0.5803,0 -2.8437,-0.1741 -2.2634,-0.17411 -4.0045,-0.17411 -1.7411,0 -3.7143,0.29018 -1.9732,0.29018 -3.1339,1.21875 -1.1607,0.92857 -1.1607,2.55357 v 37.14286 q 0,1.50893 1.1027,2.61161 1.1026,1.10267 2.6116,1.10267 h 51.0714 q -10.7946,0 -18.3973,7.60268 -7.6027,7.60268 -7.6027,18.39733 0,10.79464 7.6027,18.39732 7.6027,7.60268 18.3973,7.60268 12.5357,0 19.5,-8.9375 l 14.8571,-19.15179 14.8572,19.15179 q 6.9643,8.9375 19.5,8.9375 10.7946,0 18.3973,-7.60268 7.6027,-7.60268 7.6027,-18.39732 0,-10.79465 -7.6027,-18.39733 -7.6027,-7.60268 -18.3973,-7.60268 h 51.0714 q 1.5089,0 2.6116,-1.10267 1.1027,-1.10268 1.1027,-2.61161 z"
     id="path3437"
     style="fill:currentColor" /></g></svg>