<?xml version="1.0" encoding="UTF-8" standalone="no"?>
<!-- Created with Inkscape (http://www.inkscape.org/) -->

<svg
   xmlns:dc="http://purl.org/dc/elements/1.1/"
   xmlns:cc="http://creativecommons.org/ns#"
   xmlns:rdf="http://www.w3.org/1999/02/22-rdf-syntax-ns#"
   xmlns:svg="http://www.w3.org/2000/svg"
   xmlns="http://www.w3.org/2000/svg"
   version="1.0"
   width="64"
   height="64"
   viewBox="5.5 -3.5 64 64"
   id="Layer_1"
   xml:space="preserve"><metadata
   id="metadata13"><rdf:RDF><cc:Work
       rdf:about=""><dc:format>image/svg+xml</dc:format><dc:type
         rdf:resource="http://purl.org/dc/dcmitype/StillImage" /><dc:title></dc:title></cc:Work></rdf:RDF></metadata><defs
   id="defs11" />

<g
   transform="matrix(0.03334008,0,0,-0.03334008,5.4557964,50.995966)"
   id="g3798"><path
     d="m 416,256 q -66,0 -113,47 -47,47 -47,113 v 704 q 0,66 47,113 47,47 113,47 h 1088 q 66,0 113,-47 47,-47 47,-113 V 416 q 0,-66 -47,-113 -47,-47 -113,-47 H 416 z m -32,864 V 416 q 0,-13 9.5,-22.5 Q 403,384 416,384 h 1088 q 13,0 22.5,9.5 9.5,9.5 9.5,22.5 v 704 q 0,13 -9.5,22.5 -9.5,9.5 -22.5,9.5 H 416 q -13,0 -22.5,-9.5 Q 384,1133 384,1120 z M 1760,192 h 160 V 96 Q 1920,56 1873,28 1826,0 1760,0 H 160 Q 94,0 47,28 0,56 0,96 v 96 H 160 1760 z M 1040,96 q 16,0 16,16 0,16 -16,16 H 880 q -16,0 -16,-16 0,-16 16,-16 h 160 z"
     id="path3800"
     style="fill:currentColor" /></g></svg>