<?xml version="1.0" encoding="UTF-8" standalone="no"?>
<!-- Created with Inkscape (http://www.inkscape.org/) -->

<svg
   xmlns:dc="http://purl.org/dc/elements/1.1/"
   xmlns:cc="http://creativecommons.org/ns#"
   xmlns:rdf="http://www.w3.org/1999/02/22-rdf-syntax-ns#"
   xmlns:svg="http://www.w3.org/2000/svg"
   xmlns="http://www.w3.org/2000/svg"
   version="1.0"
   width="64"
   height="64"
   viewBox="5.5 -3.5 64 64"
   id="Layer_1"
   xml:space="preserve"><metadata
   id="metadata13"><rdf:RDF><cc:Work
       rdf:about=""><dc:format>image/svg+xml</dc:format><dc:type
         rdf:resource="http://purl.org/dc/dcmitype/StillImage" /><dc:title></dc:title></cc:Work></rdf:RDF></metadata><defs
   id="defs11" />

<g
   transform="matrix(0.03427612,0,0,-0.03427612,5.5266406,50.176734)"
   id="g3501"><path
     d="m 1875,1202 q 0,-10 -5,-18 -64,-104 -179,-190 V 961 Q 1695,734 1591,504 1457,207 1193.5,39.5 930,-128 602,-128 337,-128 102,-6 38,27 15,44 0,56 0,71 0,84 9.5,93.5 19,103 32,103 q 14,0 44,-2.5 30,-2.5 45,-2.5 204,0 375,106 -103,24 -181,96 -78,72 -111,173 -2,8 -2,11 0,12 9,21.5 9,9.5 22,9.5 5,0 14,-2 9,-2 12,-2 -89,55 -142,147 -53,92 -53,196 0,15 11.5,25.5 Q 87,890 103,890 q 10,0 35,-11.5 25,-11.5 30,-13.5 -92,110 -92,256 0,51 14.5,108 14.5,57 40.5,95 10,16 25,16 16,0 27,-12 76,-84 110,-115 123,-111 276,-177.5 153,-66.5 317,-80.5 -4,21 -4,49 0,167 118.5,285.5 118.5,118.5 285.5,118.5 163,0 282,-114 95,20 209,82 8,5 16,5 13,0 22.5,-9.5 9.5,-9.5 9.5,-22.5 0,-24 -28,-73 -28,-49 -51,-76 7,2 30,10.5 23,8.5 43,16 20,7.5 24,7.5 13,0 22.5,-9.5 9.5,-9.5 9.5,-22.5 z"
     id="path3503"
     style="fill:currentColor" /></g></svg>