<?xml version="1.0" encoding="UTF-8" standalone="no"?>
<!-- Created with Inkscape (http://www.inkscape.org/) -->

<svg
   xmlns:dc="http://purl.org/dc/elements/1.1/"
   xmlns:cc="http://creativecommons.org/ns#"
   xmlns:rdf="http://www.w3.org/1999/02/22-rdf-syntax-ns#"
   xmlns:svg="http://www.w3.org/2000/svg"
   xmlns="http://www.w3.org/2000/svg"
   version="1.0"
   width="64"
   height="64"
   viewBox="5.5 -3.5 64 64"
   id="Layer_1"
   xml:space="preserve"><metadata
   id="metadata13"><rdf:RDF><cc:Work
       rdf:about=""><dc:format>image/svg+xml</dc:format><dc:type
         rdf:resource="http://purl.org/dc/dcmitype/StillImage" /><dc:title></dc:title></cc:Work></rdf:RDF></metadata><defs
   id="defs11" />

<path
   d="m 43.880356,36.960809 c -1.091072,1.068874 -0.168722,3.012879 -0.168722,3.012879 l 8.20917,13.321855 c 0,0 1.348756,1.7557 2.517096,1.7557 1.172184,0 2.332634,-0.935392 2.332634,-0.935392 l 6.490223,-9.016477 c 0,0 0.654038,-1.136861 0.669819,-2.13374 0.0249,-1.416866 -2.174255,-1.805372 -2.174255,-1.805372 L 46.389726,36.365519 c -0.0015,4.1e-5 -1.508611,-0.388466 -2.509374,0.59529 z m -0.779711,-6.713891 c 0.787561,1.295077 2.955358,0.918344 2.955358,0.918344 l 15.332539,-4.355173 c 0,0 2.090528,-0.8255 2.388888,-1.926998 0.293046,-1.101498 -0.345416,-2.429362 -0.345416,-2.429362 l -7.327456,-8.385863 c 0,0 -0.633152,-1.061024 -1.953162,-1.166869 -1.452188,-0.120318 -2.345675,1.588122 -2.345675,1.588122 l -8.664438,13.245855 c -1.22e-4,0.0015 -0.766788,1.320174 -0.04063,2.51194 z m -7.243728,-5.164893 c 1.805372,-0.431678 2.091795,-2.980131 2.091795,-2.980131 L 37.82582,0.89269626 c 0,0 -0.272155,-2.61652206 -1.482278,-3.32554766 -1.898216,-1.1185457 -2.459574,-0.5349927 -3.005029,-0.456576 L 20.610682,1.7064629 c 0,0 -1.248021,0.4003625 -1.895641,1.4102834 -0.928769,1.4324417 0.940666,3.5295924 0.940666,3.5295924 L 32.88856,24.170263 c -0.0014,-4e-5 1.305502,1.310817 2.968357,0.911766 z m -3.143825,8.583285 c 0.04579,-1.635382 -2.021273,-2.617789 -2.021273,-2.617789 L 17.009095,24.331095 c 0,0 -2.027732,-0.812458 -3.012879,-0.245991 -0.754813,0.431678 -1.423284,1.216704 -1.488818,1.908682 l -0.890871,10.658237 c 0,0 -0.133523,1.846009 0.358458,2.687085 0.697292,1.193074 2.993254,0.362423 2.993254,0.362423 l 15.973577,-3.431556 c 0.62399,-0.40408 1.711219,-0.439442 1.771276,-2.604666 z m 3.971859,5.753765 c -1.371077,-0.68425 -3.012878,0.732615 -3.012878,0.732615 L 22.977166,51.593481 c 0,0 -1.335714,1.749118 -0.99688,2.823142 0.319212,1.007346 0.850357,1.507134 1.598711,1.860278 l 10.743272,3.295458 c 0,0 1.300391,0.261689 2.286845,-0.01574 1.401126,-0.395089 1.143402,-2.523678 1.143402,-2.523678 L 37.99446,41.542023 c 8.2e-5,3.27e-4 -0.05491,-1.492376 -1.309512,-2.122948 z"
   id="path2988"
   style="fill:currentColor" /></svg>